<?xml version="1.0" encoding="UTF-8" standalone="no"?>
<svg
   xmlns:dc="http://purl.org/dc/elements/1.1/"
   xmlns:cc="http://creativecommons.org/ns#"
   xmlns:rdf="http://www.w3.org/1999/02/22-rdf-syntax-ns#"
   xmlns:svg="http://www.w3.org/2000/svg"
   xmlns="http://www.w3.org/2000/svg"
   xmlns:sodipodi="http://sodipodi.sourceforge.net/DTD/sodipodi-0.dtd"
   xmlns:inkscape="http://www.inkscape.org/namespaces/inkscape"
   version="1.1"
   id="Layer_1"
   x="0px"
   y="0px"
   width="106px"
   height="55px"
   viewBox="0 0 106 55"
   style="enable-background:new 0 0 106 55;"
   xml:space="preserve"
   sodipodi:docname="coty.svg"
   inkscape:version="1.0.1 (c497b03c, 2020-09-10)"><metadata
   id="metadata2630"><rdf:RDF><cc:Work
       rdf:about=""><dc:format>image/svg+xml</dc:format><dc:type
         rdf:resource="http://purl.org/dc/dcmitype/StillImage" /><dc:title></dc:title></cc:Work></rdf:RDF></metadata><defs
   id="defs2628" /><sodipodi:namedview
   pagecolor="#ffffff"
   bordercolor="#666666"
   borderopacity="1"
   objecttolerance="10"
   gridtolerance="10"
   guidetolerance="10"
   inkscape:pageopacity="0"
   inkscape:pageshadow="2"
   inkscape:window-width="2560"
   inkscape:window-height="1395"
   id="namedview2626"
   showgrid="false"
   inkscape:zoom="10.339623"
   inkscape:cx="34.382299"
   inkscape:cy="27.5"
   inkscape:window-x="1680"
   inkscape:window-y="23"
   inkscape:window-maximized="1"
   inkscape:current-layer="Layer_1" />
<style
   type="text/css"
   id="style2613">
	.st0{fill-rule:evenodd;clip-rule:evenodd;fill:none;}
	.st1{fill:#3D195B;}
</style>
<g
   id="Page-1">
	<g
   transform="translate(-1762.000000, -73.000000)"
   id="g2622">
		<g
   id="g2620">
			<g
   id="Content"
   transform="translate(732.000000, 30.000000)">
				<g
   id="Logos"
   transform="translate(0.000000, 43.000000)">
					<g
   id="logo-coty"
   transform="translate(1030.000000, 0.000000)">
						<rect
   id="bg"
   x="0.8"
   y="0"
   class="st0"
   width="104.8"
   height="55" />
						<path
   id="Shape"
   class="st1"
   d="M10.1,33.4c-3.4,0-5.6-2.4-5.6-5.9s2.2-5.9,5.6-5.9c2.4,0,4.1,1.1,5.1,2.7l2.9-2.5        c-1.6-2.3-4.1-4-8-4c-6.2,0-9.9,4.5-9.9,9.7s3.7,9.7,9.9,9.7c3.9,0,6.4-1.7,8-4l-2.9-2.5C14.2,32.3,12.5,33.4,10.1,33.4        L10.1,33.4z M38.5,37.2c5.8,0,9.9-4,9.9-9.7s-4.1-9.7-9.9-9.7s-9.9,4-9.9,9.7C28.6,33.2,32.7,37.2,38.5,37.2L38.5,37.2z         M38.5,33.4c-3.3,0-5.7-2.5-5.7-6c0-3.5,2.3-6,5.7-6c3.4,0,5.7,2.5,5.7,6C44.2,31,41.9,33.4,38.5,33.4L38.5,33.4z M64.5,36.9        h4.5v-15h6.5L75.1,18H58.4L58,21.9h6.4V36.9z M98.1,32.3c0-1.7,0.4-2.5,2.2-4.4l1.8-2c2.1-2.4,3-4.3,3-7.4v-0.4h-4.4v0.3        c0,2.7-0.5,3.7-2.2,5.6l-1.3,1.4c-0.7,0.8-1.3,1.6-1.3,1.6s-0.5-0.8-1.3-1.6L93.4,24c-1.7-1.9-2.2-2.9-2.2-5.6v-0.3h-4.5v0.4        c0,3.1,0.9,5.1,3,7.4l1.8,2c1.7,1.9,2.2,2.7,2.2,4.4v4.5h4.4L98.1,32.3L98.1,32.3z"
   style="fill:#9e9e9e;fill-opacity:1" />
					</g>
				</g>
			</g>
		</g>
	</g>
</g>
</svg>
