<svg xmlns="http://www.w3.org/2000/svg" xmlns:xlink="http://www.w3.org/1999/xlink" xmlns:svgjs="http://svgjs.com/svgjs" id="SvgjsSvg1001" width="288" height="95" version="1.1"><defs id="SvgjsDefs1002"/><g id="SvgjsG1008"><svg xmlns="http://www.w3.org/2000/svg" viewBox="0 0 157 45" width="288" height="95"><g fill="#ffffff" fill-rule="nonzero" class="colorFFF svgShape"><g fill="#9aa997" class="color000 svgShape"><path d="M27.0433658 11.2666783L27.0433658 11.2666783C26.1510593 11.2666783 25.3341656 11.8305944 25.0317338 12.6841783L20.917756 24.1461189 23.8368394 32.3005594C24.1394273 33.1541434 24.9560088 33.7331643 25.8484714 33.7331643L25.8484714 33.7331643C26.7559229 33.7636888 27.5575154 33.1692483 27.8601033 32.3005594L31.9892262 20.8080944 29.0398527 12.6841783C28.7524098 11.8305944 27.9508173 11.2666783 27.0433658 11.2666783zM25.4400245 11.2666783C24.6988559 11.4952972 24.471993 11.8153322 24.1544162 12.6078671L12.5687964 44.9208566 0 44.9208566 11.5856198 12.6383916C11.8730628 11.8154895 12.6595103 11.2666783 13.5215268 11.2666783L25.4400245 11.2666783 25.4400245 11.2666783zM27.6633744 33.733479C28.404543 33.5047028 28.6314059 33.1846678 28.9489827 32.3921329L40.5346025.0793006993 53.1033989.0793006993 41.5177791 32.3617657C41.2303361 33.1846678 40.4438886 33.733479 39.5818721 33.733479L27.6633744 33.733479 27.6633744 33.733479z" fill="#9aa997" class="color000 svgShape"/></g><g transform="translate(54.335 11.171)" fill="#9aa997" class="color000 svgShape"><path d="M14.3474762 1.29949301L14.3474762 18.3247552 4.59190437 1.29949301C2.67098633 1.29949301 2.18697057 1.29949301.145204728 1.29949301L.145204728 22.561993 3.32144106 22.561993 3.32144106 5.65867133 13.0012879 22.5467308C13.9543305 22.5467308 16.5708261 22.5467308 17.5237126 22.5467308L17.5237126 1.29949301 14.3474762 1.29949301zM30.3343607 6.40557692C27.929583 6.22258741 24.8741945 6.45120629 21.6829693 6.80192308L21.6829693 9.68270979C24.208907 9.14916084 28.1564459 8.98159091 29.1849013 9.11879371 30.6369486 9.37777972 31.1813883 10.170472 31.1813883 11.4049825L31.1813883 12.6089685C29.1849013 12.5633392 27.4758573 12.5480769 25.7969471 12.6243881 23.0290015 12.8224825 20.59409 14.4991259 20.59409 17.5171154 20.59409 20.5349476 21.7132593 22.2726399 24.8442168 22.6993531 27.2792844 23.0193881 31.5597012 23.0651748 34.6602125 22.5621503L34.6602125 12.7159615 34.6602125 11.5118182C34.7659153 8.4020979 33.2534441 6.75597902 30.3343607 6.40557692zM31.3326822 20.458479C30.6218036 20.5042657 29.2454814 20.458479 28.4740227 20.458479 25.6759432 20.3975874 24.012178 20.0317657 23.997033 17.516958 23.981888 15.5202797 26.1145239 15.1086713 27.0371204 15.1086713 27.9597169 15.1086713 30.3949407 15.0781469 31.3628161 15.1086713L31.3326822 20.458479zM79.8683776 6.40557692C77.4635999 6.22258741 74.4082114 6.45120629 71.2169862 6.80192308L71.2169862 9.68270979C73.7427678 9.14916084 77.6904628 8.98159091 78.7189182 9.11879371 80.1709655 9.37777972 80.7154051 10.170472 80.7154051 11.4049825L80.7154051 12.6089685C78.7189182 12.5633392 77.0098741 12.5480769 75.330964 12.6243881 72.5630184 12.8224825 70.1281068 14.4991259 70.1281068 17.5171154 70.1281068 20.5349476 71.2472762 22.2726399 74.3782336 22.6993531 76.8133013 23.0193881 81.0937181 23.0651748 84.1942294 22.5621503L84.1942294 12.7159615 84.1942294 11.5118182C84.2847872 8.4020979 82.787461 6.75597902 79.8683776 6.40557692zM80.8666991 20.458479C80.1556643 20.5042657 78.7794982 20.458479 78.0080396 20.458479 75.2099601 20.3975874 73.5461949 20.0317657 73.5310499 17.516958 73.5159049 15.5202797 75.6485408 15.1086713 76.5711373 15.1086713 77.4937338 15.1086713 79.9289576 15.0781469 80.896833 15.1086713L80.8666991 20.458479zM37.8211477 19.315542L37.8211477 22.3333741C41.4359648 23.095542 44.5970561 23.1716958 47.1834177 22.3333741 51.5244146 20.885507 51.9628392 14.9105769 47.1834177 13.4930769L42.857722 12.380507C40.7100973 11.8622203 40.4983794 9.68270979 42.857722 9.21020979 44.7483501 8.84438811 46.9868449 9.11879371 49.5127826 9.51513986L49.5127826 6.67998252C46.1701073 5.97886364 43.3871728 6.00938811 41.1033991 6.67998252 36.9289974 7.80797203 36.6716883 12.7614336 39.5303479 14.5447552 41.0278302 15.5660664 43.8711886 15.9317308 45.3383809 16.3128147 47.6675896 16.9986713 47.2894328 19.3764336 45.3383809 19.7727797 43.039306 20.3061713 40.4983794 20.047028 37.8211477 19.315542zM63.760333.125874126L63.760333 6.45120629C63.760333 6.45120629 61.4159793 6.22258741 59.6615002 6.34452797 55.5778124 6.71034965 52.507435 9.63676573 52.507435 14.4228147 52.507435 19.8336713 55.5172323 22.561993 59.8127942 22.9278147 61.85456 23.1868007 64.9553835 22.9278147 67.1634322 22.5467308L67.1634322.125874126 63.760333.125874126zM63.760333 20.4128497L61.6428421 20.4128497C58.5724647 20.4128497 56.3036799 18.781993 56.091962 14.5903846L56.091962 14.5903846C56.091962 10.2464685 58.7690376 8.85933566 61.9755639 9.08795455L63.7753219 9.30131119 63.7753219 20.4126923 63.760333 20.4126923 63.760333 20.4128497zM101.799444 28.1863636L101.799444 6.61877622C99.591083 6.23784965 96.4905717 6.08538462 94.4488059 6.34452797 90.289393 6.72561189 87.1434467 8.95075175 87.1434467 14.6361713 87.1434467 19.8489336 90.0021062 22.5772552 94.0706491 22.9429196 95.8251281 23.0648601 98.1543369 23.034493 98.1543369 23.034493L98.1543369 29.8626923 101.799444 28.1863636zM98.1996158 20.0622902L96.3998578 20.2756469C93.3900604 20.4738986 90.7128287 18.9191958 90.7128287 14.8953147 90.7128287 10.4750874 93.2084765 9.07284965 96.2637089 9.07284965L98.3813559 9.07284965 98.1996158 20.0622902z" fill="#9aa997" class="color000 svgShape"/></g></g></svg></g></svg>